<svg version="1" xmlns="http://www.w3.org/2000/svg" width="1066.667" height="1066.667" viewBox="0 0 800.000000 800.000000"><path d="M374 9.2C311.8 14.3 250.5 38.7 201 78c-13.4 10.6-40.4 37.5-50.6 50.5-72.4 91.8-90 212.6-46.8 320.3 34.3 85.5 105.4 153 193 183.2 25.6 8.8 58.8 15.4 84.7 16.7l12.4.6.7 21.6c.3 11.9.8 34.9 1.1 51.1.7 33.6 2 58.8 3.6 66 1.1 5.3 3.3 6.6 4.3 2.7 2-8.2 3.8-45.1 5.1-103.7.3-14 .8-28.2 1.1-31.6l.5-6.1 11.7-.7c17.3-.9 37.6-4.1 56.1-8.7 43-10.6 80.1-28.2 115.6-54.9 71.8-53.9 116.8-133.7 126.6-224 1.7-16.4 1.5-51.5-.5-68.5-11.3-94.9-62.5-178.6-141.6-231C517.9 21.6 445.9 3.2 374 9.2zm41 44.9c1.9 3.4 3.6 6.4 3.8 6.9.1.4-2.7 2.6-6.3 5-8.3 5.4-8.5 7.3-1 9.6 3 1 5.5 2 5.5 2.4 0 .3-1.5 2-3.3 3.8l-3.2 3.2-7-3.7-7-3.6V55.5l7-3.6c3.9-2 7.2-3.6 7.5-3.7.3-.1 2.1 2.6 4 5.9zM371.2 52c3.2 1.9 3.2 1.9 5.4-.1l2.2-2.1 5.4 2 5.3 2 1.1 10.3c.6 5.7 1.3 10.9 1.5 11.5.2.7-1.9 3-4.8 5.3-4.3 3.4-5.7 4-7.9 3.5l-2.7-.7.6 4.5.6 4.6-5.3 3.4-5.3 3.5.5-6.6c.2-3.6-.1-12.5-.7-19.6-1.1-13-1.6-14.4-5.5-15.8-.9-.4 4.9-7.7 6.1-7.7.1 0 1.7.9 3.5 2zm75.9 5.1c-.2.8-1.1 5.6-1.9 10.7l-1.5 9.3 2.3 2.5c1.4 1.4 2 2.7 1.4 3.2-.5.4-2.1 1.8-3.7 3.2l-2.7 2.4-2.8-3.3-2.8-3.4-2.9 2.6-2.9 2.5-5.3-3.7c-4.2-2.8-5.2-4-4.7-5.6 1.2-4 2.3-11.1 2.4-15 .1-3.8.4-4.2 6.3-8l6.2-4 6.5 2.6c4.3 1.8 6.4 3.1 6.1 4zm-95.7-1.6l5.3 1.5 2.2 9.8c1.2 5.3 2.5 10.3 3 11.1.6.9-.8 2.9-4.7 6.7-5.2 5-5.8 5.4-8.7 4.5-1.6-.5-4.8-1.2-7-1.6-3.8-.6-4-.8-4.3-4.6-.2-3.5-2.3-14.2-3.3-17.6-.3-.9 10.4-11 11.9-11.2.2-.1 2.8.6 5.6 1.4zm111.7 2.6l2.6 3.2 3-1.8 3.1-1.8 4.6 3.9c3.1 2.5 4.4 4.4 4 5.4-.3.8-1.6 5.5-3 10.4-2.2 8.3-2.2 9.1-.8 10.8 1.5 1.6 1.3 1.9-3 4-4.6 2.2-4.6 2.2-6 .3-4.6-6.4-4-6.1-8-4.2-4.9 2.3-5.1 2.2-8.1-1.8-2.5-3.1-2.6-3.6-1.1-5 .8-.9 2-3.5 2.6-5.8.6-2.3 1.6-5.9 2.1-8 .9-3.2.7-4.2-.7-5.8-1.9-2.1-1.7-2.4 2.3-5 3.7-2.3 3.4-2.4 6.4 1.2zm50.8 3.1c3.2 7.1 3.2 7 8 5.3 2.4-.8 4.7-1.5 5.1-1.5.5 0 2 1.9 3.4 4.2 4.5 7.5 3.8 7.1 9.2 5.5l4.9-1.5 3 4.4c1.8 2.7 4.5 5.1 6.8 6.1 2 .9 3.7 1.9 3.7 2.2 0 .3-1.7 1.6-3.8 2.8-3 1.7-4.9 4.3-9.5 12.8l-5.8 10.7 2.2 2.4c1.2 1.3 2.1 2.5 1.8 2.7-2.2 1.8-8.1 4.8-8.8 4.5-1.2-.4-8.1-9.6-8.1-10.7 0-.5.7-1.1 1.5-1.4.8-.4 3.5-4.7 6-9.7 3-6 5.5-9.6 7.5-10.8 2.7-1.7 2.7-1.9 1-3-1-.6-2.6-2.5-3.6-4.2-1-1.6-2.2-3-2.6-3-.4 0-3.7 5.7-7.4 12.6-5.8 11-6.5 13-5.5 14.6.7 1.1 1.1 2.1.9 2.3-.9.8-9 4.6-9.3 4.3-.1-.2-1.4-2.6-2.8-5.5-2.2-4.2-2.4-5.2-1.2-5.7.8-.3 4.1-5.9 7.5-12.5l6-12-2.1-3.5c-2.9-4.9-4.6-3.7-10.3 7.3-2.5 4.9-5.7 9.8-7.1 10.9l-2.4 1.9 2.4 2.3c1.4 1.3 2.5 2.6 2.5 3 0 .4-1.7 1.9-3.7 3.3l-3.8 2.7-5.1-5.8-5.1-5.7 2.7-1.1c2.1-.9 4.1-3.9 8.6-12.7l5.9-11.6-2.3-3c-3-4-2.8-4.6 1.6-6.4 5.5-2.2 5.9-2.1 8.1 2.5zM328.5 64c3.1 4.2 3.1 4.6-.1 9.4l-2.6 3.8-2.2-3.8c-1.2-2.2-2.6-3.7-3.1-3.4-1.2.6-1.3-.1 1.5 9.2l2.4 7.8h3.8c4.3 0 4.5.5 2.1 5.5-1.7 3.5-1.7 3.5-8 3.5-5.8 0-6.3-.2-6.3-2.2 0-3.7-5.3-19.8-6.5-19.8-.6 0-2-.6-3-1.4-1.8-1.3-1.8-1.4.4-5 1.3-2 2.5-3.6 2.7-3.6.3 0 2.2.9 4.2 1.9l3.7 1.9 3-4.3c3.3-4.9 4.1-4.8 8 .5zM298 71.1c3.3 1 3.9 1.7 4.4 4.8 1.2 6.2 6.9 16.6 9.4 16.9 2.7.4 2.7.3.2 5.2-2.2 4.3-2.6 4.5-6.5 3-2.3-.9-2.6-.7-3.2 2l-.5 3h-7.4c-7.3 0-7.4 0-7.4-2.6 0-2.8-6.4-17.4-7.7-17.4-.4 0-1.4-.4-2.1-.9-2-1.2.5-9.3 2.7-8.7.9.3 3 .7 4.6 1.1 2.7.5 3.4 1.5 6.9 10.5 3.8 9.8 4.4 10.5 7.8 9.2 1.5-.6 1.3-1.6-1.9-9-2.7-6.3-4-8.2-5.5-8.2-2.1 0-2.1-1.5.2-7.5 1.1-2.9 1-2.9 6-1.4zm-31.6 5.1c.3 1.3.6 3.8.6 5.5 0 3.3 0 3.3-5 3.3-2.7 0-5 .2-5 .5s.7 1.7 1.6 3.1l1.7 2.4 4.4-2.6c2.5-1.4 4.6-2.4 4.8-2.2.2.2.7 2.3 1.1 4.6.5 3.3.3 4.2-.8 4.2-.8 0-2.3.7-3.4 1.5-1.8 1.4-1.8 1.6-.1 2.6 2.3 1.3 2.2 2.2-.8 6.9-2.9 4.7-2.9 4.6-1 5.4 2.2.8 10.2-1.9 14-4.8 1.8-1.4 3.6-2.6 4-2.6.3 0 .5 2.6.3 5.7l-.3 5.8-5 2.5c-4.1 2-6.5 2.4-13.2 2.5-7.5 0-8.5-.2-12.5-3C247 114.1 241 105 241 101c0-1.5 2.5-7.6 5.5-13.6l5.6-10.9 5.7-1.1c8-1.6 7.9-1.6 8.6.8zm-49.3 28.6c.8 1.5 6.4 8.4 12.3 15.4 9.7 11.4 11.1 12.6 13.5 12.2 2.6-.5 2.6-.5 2.3 4l-.4 4.5-5.1.8c-4.9.8-5.3.8-6.3-1.5-1.7-3.7-18.5-23.1-20.5-23.7-1.1-.4-1.9-1.1-1.9-1.8 0-2 3.3-12.7 3.9-12.7.3 0 1.3 1.2 2.2 2.8zm356.2 5.2c3.6 4.6 4.3 6.1 3.3 6.7-.8.4-4.1 4.2-7.4 8.3-5.4 6.8-5.9 7.7-5 10.3.6 1.5.8 3 .6 3.2-.2.2-2.4.5-4.8.7-4.3.3-4.4.2-5.3-3.4-.9-3.7-1-3.8-4.6-3.2l-3.8.6-2.5-5.8-2.5-5.9 4.8-5.3c2.7-2.9 5.6-6.6 6.6-8.2 1.5-2.7 2.2-2.9 8.2-3.3 3.6-.2 6.9-.4 7.2-.5.3-.1 2.7 2.5 5.2 5.8zm-150.8 9c40 4.5 75.2 18.6 108 43.3 11.4 8.6 29.7 27.4 39.1 40 46.2 61.8 55.1 142.1 23.8 213.1-20.6 46.4-60.2 85.8-107.3 106.6-20.2 8.9-45.6 15.4-64.5 16.7l-9.5.6.5-12.9c.5-14.9 3.1-135.5 4-193.6l.7-39.6 6.5-.7c3.6-.4 14.4-.5 24.1-.3l17.6.3.9-2.8c1.7-4.7-2.6-9.3-6.4-6.9-1.4.8-8.2 1.2-23.9 1.2h-21.9l-1.1-3.2c-.7-2.1-1.1-11.8-1.1-26.8 0-12.9-.4-29.6-.9-37-1.8-23.4-1.5-31.2 1.4-38 5.6-13.2.9-23.3-10.6-23.2-10.7.2-15.2 11.7-9.2 23.5l2.6 5.2-1.2 33c-.6 18.1-1.1 39.5-1.1 47.5s-.3 15.5-.6 16.7c-.6 2.3-.6 2.3-23.1 2.3-12.4 0-23.2-.4-24.2-1-4.3-2.2-7.6 4.9-4.3 9 1.8 2.2 2.2 2.3 4.5 1.1 2-1.1 6.8-1.3 22.2-.9 10.7.3 19.7.7 19.9.9.3.2 1.1 44.1 2 97.4.9 53.4 1.9 108.8 2.2 123.2l.7 26.2-5.9-.5c-51.8-4.5-94.2-23.3-131.7-58.4-8.7-8.1-21.9-24.1-30.1-36.4-15.9-23.9-27.2-53.2-32.3-83.2-2.5-15.1-2.5-48.4.1-63.9 5.9-36.5 18.5-66.4 40-95.4 33.8-45.3 86.1-75.6 142.6-82.6 12.9-1.6 35.5-1.8 47.5-.5zm166.3 6.1l.3 4.7 5 .4c2.7.3 5.2.8 5.5 1.1.4.3-.4 2.8-1.7 5.4-2.4 4.7-2.5 4.8-7.6 5.1-2.9.2-5.3 0-5.3-.3s1.1-2.3 2.5-4.3c4.1-6 .9-5.1-5.8 1.6l-6.1 6.1 1.6 3.5c.9 1.9 1.4 3.7 1.1 4-.4.3-2.5.6-4.8.6-4 0-4.1-.1-6.7-5.8-1.9-4-2.3-5.8-1.5-6.1.7-.2 4.3-3.4 8-7 6.6-6.4 6.9-6.7 6.3-10.4l-.6-3.8 4.7.3 4.8.3.3 4.6zM218.7 135c7.2 7.6 7.7 8 10.9 7.4l3.4-.6V152h-4c-4 0-4 0-4 3.9v3.9l-6.4 2.2-6.5 2.1.5 4.7.6 4.7-7.2 3.2-7.2 3.2-6.1-5c-3.3-2.8-7.1-5.6-8.4-6.2-2.3-1-2.4-1.5-2.1-8.3l.3-7.3 5.6-2.1c3.1-1.1 5.9-2 6.3-2 .3 0 .6 2 .6 4.4 0 4-.3 4.5-3.1 5.5l-3.2 1.1 5.8 4.5c3.2 2.5 6.2 4.5 6.7 4.5 1.5 0 10.8-5.5 10.8-6.4 0-.5-3-4-6.7-7.7l-6.8-6.7.5-7.1.5-7.1 5.5-3.4c3-1.9 5.6-3.5 5.8-3.5.2-.1 3.8 3.5 7.9 7.9zm400.2 5.6c-.2.5-2 2.2-4.2 3.7l-3.8 2.8 2.6 3.5c1.5 2 2.5 3.7 2.4 3.8-.2.2-1.9.8-3.6 1.4-2.9 1-3.4.8-5.1-1.3l-1.9-2.3-5.8 5.2-5.9 5.2 2 4.7c1.3 3.2 2.5 4.7 3.8 4.7 1 0 5-2.3 8.8-5.2 5.2-3.8 6.8-5.6 6.5-7-.4-1.4 0-1.8 2.1-1.8 6.1 0 7.2.9 7.2 5.6 0 3.5-.4 4.6-2.2 5.5-5.9 3-15.8 11.2-15.8 13 0 2-1.6 2.3-6.9 1.3-3.1-.7-3.1-.7-2.9-6.3l.3-5.6-4.7-.3-4.7-.3-2-6.2c-1.4-4.1-1.8-6.3-1.1-6.5.6-.2 4.3-3.1 8.1-6.4 5-4.3 6.7-6.4 6-7.1-1.8-1.8-1.3-2.4 2.9-3.1 2.6-.4 4.5-1.4 5.5-3l1.6-2.4 5.5 1.7c3 1 5.4 2.2 5.3 2.7zm18.3 16.3c1.8 1.6 3 3.2 2.7 3.5-1.3 1.3-11.9-1.7-14-4l-2.2-2.4h5.1c4.3 0 5.7.5 8.4 2.9zm-471.7 6.5c.6 6.2-.4 10.6-2.4 10.6-.4 0-1.2-2.1-1.8-4.7-.9-3.8-.8-5.5.4-8.5.8-2.1 1.9-3.8 2.3-3.8.4 0 1.1 2.9 1.5 6.4zm240.1-.8c1.2 2.9 1.2 4.2-.1 9.6-.8 3.5-1.5 8.2-1.5 10.5 0 3.2-.4 4.3-1.5 4.3-1 0-1.5-1-1.5-2.7 0-1.5-.5-6.4-1.2-11-1.1-7.3-1-8.7.5-11.8 2-4.1 3.3-3.8 5.3 1.1zm-8.9 0c-.8 2.6-.8 5 .1 9.3.7 3.1 1.2 7.7 1.2 10.2l-.1 4.4-1.3-3.5c-.7-1.9-2.1-5.3-3.1-7.5-2.1-4.9-1.5-10.8 1.6-14.1 1.2-1.3 2.4-2.4 2.5-2.4.1 0-.3 1.6-.9 3.6zm15.9 4.5c.4 2.5-.2 5.4-2 10.1-1.4 3.5-2.6 7.2-2.6 8.1 0 .9-.5 1.7-1.1 1.7-1.2 0-.7-5.6 1.3-14.3.6-2.7.8-6.7.5-8.9-.5-4.1-.5-4.1 1.4-2.1 1.1 1 2.2 3.5 2.5 5.4zM177 170.9c0 .5 3.7 3.4 8.3 6.5 5.8 4 8.8 5.4 10.3 5 1.8-.5 2.2 0 2.8 2.6 1.1 6 .9 6.5-4.3 8.2-4.6 1.5-5 1.5-5.4-.2-.2-1-3.5-4.1-7.3-6.9-5.6-4.1-7.4-4.9-9.6-4.5-2 .4-2.8.2-2.8-.9 0-.8-.3-2.8-.6-4.5-.6-2.8-.3-3.2 2.7-4.6 4-1.7 5.9-1.9 5.9-.7zM640.6 187l2.1 6.9-2.1.5c-1.2.3-5.6 2.6-9.8 5.1-7 4.1-7.8 4.9-7.8 7.5 0 3.2-1.5 3.6-7 2.1-2.2-.6-2.4-1.1-2.2-4.8.3-4.1.2-4.2-3.1-4.8l-3.5-.7-.4-6.4-.3-6.4 6-3c3.4-1.7 7.4-4.1 9-5.4l2.9-2.3 7.1 2.4 7.1 2.4 2 6.9zm-470-.9c1.5.5 2.3 1.9 2.8 5 .4 2.3.5 4.4.2 4.6-.3.3-2.1 0-4.1-.7-2-.7-3.9-.9-4.2-.6-1 1 1.4 3 8 6.5l6.4 3.4 3.2-2.2c1.8-1.3 3.4-2.2 3.6-2 .1.2.8 2.2 1.4 4.4 1.1 4 1.1 4-3.1 7.7-4.8 4.1-6 4.5-7.8 2.3-2-2.5-15.3-9.7-16.9-9.2-.9.3-2.4.8-3.3 1.2-1.3.5-1.9-.2-2.8-3.4-1.2-4.4-.7-6.1 1.5-6.1.8 0 2.5-.4 3.8-.9 2.2-.9 2.4-1.3 1.7-5.8-.5-3.1-.4-5 .3-5.5 1.1-.7 5.6-.1 9.3 1.3zM662.4 200c3.9 2.4 3.9 2.4 1.5 3.3-1.3.6-9.5 4.4-18.1 8.5-14.9 7.1-15.8 7.7-15.8 10.4 0 3.2-.1 3.2-5.2 1.7-3.3-.8-3.8-1.4-3.8-3.8 0-6.1 1.1-9.1 3.5-9.1 3 0 25.5-11.2 27.9-13.9 1.7-1.8 2.2-2 4-.8 1.2.7 3.9 2.4 6 3.7zm-494.1 16.1l6.3 2.2 1.1 7 1.1 7-5.3 5.2c-4.6 4.4-5.5 5-7 3.9-1-.7-5.7-3-10.5-5l-8.7-3.7-.6-8c-.6-7.3-.5-8.2 1.4-9.5 1.1-.7 3.2-2.4 4.6-3.6l2.5-2.2 4.4 2.2c2.4 1.2 7.2 3.2 10.7 4.5zM672.9 231c5.1 2.5 5.9 3.4 6.5 6.4.7 3.7.2 10.4-1.5 19.4-.9 4.6-1.3 5.1-3.2 4.7-1.2-.3-7.6 1.1-14.2 3.2-10.2 3.3-12 4.2-12.3 6.1-.2 1.2-.5 2.2-.7 2.2-.7 0-9.5-3.9-9.5-4.3 0-.2.7-2.6 1.5-5.4l1.5-5 5.1-.5c2.7-.3 5.4-.9 5.9-1.4.5-.5.5-2.6-.1-5.1-1.1-4-1.2-4.1-4.2-3.2-7.7 2.2-16.3.3-25.1-5.6-3.5-2.3-5.6-4.4-5.6-5.6 0-2.3-.5-2.4 5.4.6 7.7 3.9 19.6 2.9 31.8-2.6l4.7-2.2 5.7 4.9 5.7 4.9-.5-4.9c-.4-2.9-1.3-5.5-2.2-6.1-1.5-1.1-2.2-3.5-1.1-3.5.3 0 3.2 1.3 6.4 3zm-529.5 6.9c2.3 2.4 2.6 3.2 1.7 4.9-.6 1.2-1.1 2.3-1.1 2.6 0 .5 13 4.6 14.7 4.6.5 0 1.8-1.6 2.9-3.5 1-1.9 2.2-3.5 2.6-3.5.5 0 1.8 2 3 4.4l2.1 4.5-3.9 4.3c-2.1 2.4-4.1 4.3-4.4 4.3-.3-.1-3.6-1-7.5-2.2-11.5-3.6-12.5-3.7-12.5-1.9 0 2.4-1.4 1.9-3.8-1.4-1.6-2.1-3.1-3-5.2-3-2.6 0-3-.5-4.4-5.4-2.2-7.5-2.1-7.9 1.4-6.1 7.6 3.9 7.9 3.9 9.1-1 .6-2.5 1.4-4.5 1.8-4.5.4 0 2 1.3 3.5 2.9zm-7.9 24.8c1.4 2.1 2.5 3.2 2.5 2.5 0-2.3 6.9-4.4 11.7-3.7 4.3.6 4.3.7 8.3 9l4 8.4-2.2 3.4c-1.3 1.9-2.8 4.3-3.5 5.3-1.2 1.8-1.3 1.8-3.3-.6-4-4.9-4.1-5.5-1-10.3 1.5-2.5 2.6-4.8 2.3-5.1-.8-.8-8.8-.8-9.6 0-.3.3.1 2.8 1 5.6.9 3.1 1.1 5.4.5 6-.5.5-3.3.8-6.3.6l-5.4-.3-3.9-7.7-3.9-7.8 2.4-4.5c1.3-2.5 2.7-4.5 3.1-4.5.4 0 1.9 1.7 3.3 3.7zm537 7.9l3.4 2.6-2.5 3.8-2.6 3.8 3.9 3.6 3.8 3.6-3 2.5c-4.8 3.9-8.2 4.2-11.6.9-1.6-1.5-2.9-3.1-2.9-3.4 0-.4 1.8-1.4 4.1-2.3 6.5-2.6 3.9-3.6-5.3-2.1-4.6.8-8.6 1.4-9 1.4-.5 0-.8 1.8-.8 4s-.2 4-.5 4-2.4-1.2-4.6-2.7c-3.1-2.1-3.9-3.1-3.5-4.7.3-1.2.9-3.7 1.2-5.7l.6-3.5 10.4-1.3c9.7-1.2 10.6-1.5 12.6-4.2 1.2-1.6 2.3-2.9 2.6-2.9.2 0 1.9 1.2 3.7 2.6zm-556.2 15.7c3.4 4.9 4.9 10.7 2.8 10.7-.5 0-2.3-1.6-4-3.5-2.5-2.9-3.1-4.5-3.1-8 0-2.5.2-4.5.3-4.5.2 0 2 2.4 4 5.3zm347.6 2.9c-.7 1.3-1.4 1.6-2.2 1-1.3-1-47.2.2-53.9 1.4-3.7.7-3.8.6-3.8-2.6v-3.2l28.5.3c24.6.4 28.6.2 29.1-1.1.4-1.3.8-1.2 1.9.4 1 1.4 1.1 2.4.4 3.8zm-90.8-2.9l27.9-.6v3.3c0 3.2-.1 3.2-3.7 2.7-2.1-.3-14.1-1.1-26.6-1.8-18-1-23.3-1-24.8 0-2.3 1.4-3.9.7-3.9-1.8 0-2.3 1.1-3.4 2.3-2.2.5.5 12.3.7 28.8.4zm-232.3 3.9c6.4.9 8.8.9 10.3 0 2.5-1.6 2.3-1.7 5.4 2.4l2.7 3.6-3.8 3.9c-3.5 3.6-3.9 3.8-5.5 2.3-1.1-1-5.2-2.1-9.8-2.7-7.1-.9-8.3-.8-9.9.6-1.8 1.7-2 1.5-4.7-2.3l-2.8-4.1 2.9-3c2-2.1 3.5-2.8 4.9-2.4 1.1.3 5.7 1.1 10.3 1.7zm273.8 36.5c-2.7 135.7-3.6 181-4.2 196l-.6 17.3h-7l.7-122.3c.4-67.2 1-122.5 1.4-122.9.6-.6 4.1-1.3 8.5-1.7 1.9-.1 1.9.9 1.2 33.6zm-13.7-31.1c.4.5.6 55.7.3 122.6l-.4 121.8h-6.5l-.7-34.8c-.3-19.1-1.1-62.8-1.6-97.2-.5-34.4-1.2-74.1-1.5-88.4l-.7-25.9 5.2.5c2.8.3 5.5.9 5.9 1.4zm272.5 2.1c2.7 1.3 4.1 1.4 5.9.6 2.1-1 2.7-.6 6.5 4.3l4.2 5.4h-12.5l.3 4.5c.2 2.5.1 4.5-.2 4.5-.4 0-2.2-.7-4.1-1.4-2.7-1.2-3.5-2.1-3.5-4 0-2.3-.4-2.6-3.4-2.6-1.8 0-5.4.3-7.9.6-4.4.6-4.5.7-5.2 5-.3 2.4-.8 4.4-1.1 4.4-.3 0-2.2-1.4-4.3-3l-3.8-3.1 2.1-5.8 2-5.9 10.3-.7c9.2-.6 10.3-.9 10.3-2.6 0-2.3.1-2.3 4.4-.2zm-523.9 9.7c3 1.3 7 4.5 9.9 7.7 8.4 9.3 9.1 14.1 1.1 7.1-5.9-5.2-10-6.5-18.7-6-6.5.3-7.3.6-10 3.7-2.7 3-2.8 3.5-1.5 5.4 1.2 1.9 2.6 2.2 8.4 2.5l7 .3 1.4-3.5 1.4-3.5 4.2 3.7 4.2 3.7-3 6.3c-2.9 5.9-3.2 6.2-4.8 4.8-1.4-1.3-4.2-1.6-13.5-1.6-6.4 0-12.5.4-13.5 1-1.6.8-2.8-.3-8-7.1l-6.1-8 1.1-4.5c.6-2.4.9-6.3.6-8.4-.3-2.2-.2-4 .1-4 1.6 0 10.2 6.7 10.2 8 0 .8-.7 3.7-1.5 6.4s-1.4 5-1.3 5.1c.2.1 2.7.5 5.6.8l5.4.6-2-3.2c-1-1.8-2.5-4.2-3.3-5.5-1.2-2-1.2-2.6.6-5.9 4.3-8.1 15.9-10.7 26-5.9zM657 325.3c0 .7-.9 3.2-2 5.6-1.1 2.4-1.9 4.6-1.7 4.8.6.5 8.2-.8 9.6-1.6.8-.5.4-2.1-1.5-5.5-2.4-4.3-2.5-4.9-1.1-6.3.9-.9 3.7-1.8 6.4-2l4.8-.4 5.1 7 5.2 7-1.6 4.8c-.9 2.6-1.8 5-2 5.2-.1.3-1.8-1.1-3.7-2.9-2.2-2.2-3.5-2.9-3.5-1.9 0 3.1-11.1 7.1-14.3 5.2-.8-.4-3.8-3.9-6.7-7.6-5.1-6.8-5.2-6.9-3.7-10 .9-1.8 1.9-4.4 2.2-5.9l.7-2.8 3.9 3.1c2.1 1.7 3.9 3.6 3.9 4.2zM274 540.6l2.3 5.6 4.1-.6c2.3-.4 5-.9 6.2-1.2 1.6-.4 2.7.5 4.9 4 1.8 2.9 4.3 5.2 6.9 6.4l4 1.9-3.1 1.6c-4.2 2.2-7.3 6.1-12.8 16.2l-4.7 8.7 2.2 2.3 2.1 2.2-4.6 2.8c-5.2 3-4.3 3.4-10.2-4.9-2.5-3.5-2.6-3.9-1.1-5 .9-.7 3.9-5 6.5-9.7 2.7-4.6 6.3-9.3 7.9-10.4l3.1-2.1-4.2-4.7c-2.2-2.6-4.8-4.7-5.7-4.7-.9 0-3.3 3.4-5.9 8.2-5.2 9.6-7.5 12.8-9.5 12.8-2.1 0-1.7 1.1 1.8 4.7 3.1 3.2 3.1 3.3 1.2 4.7-2.8 2.2-6.4 4-6.7 3.5-.2-.2-2.7-3.2-5.6-6.7-4.4-5.2-5-6.2-3.2-6.2 2.5 0 5.5-4 11.3-15.2l4.6-8.6-2.5-3.7c-1.4-2-2.3-3.8-2.1-3.9.8-.6 8.4-3.5 9.4-3.5.6-.1 2.1 2.4 3.4 5.5zm245.4 4c-.7 3.7-3.6 18.2-4 19.6-.4 1.4.1 1.8 1.8 1.8 1.3 0 2.9-.5 3.6-1.2 1.9-1.9 2.4-.3 1.5 5.4l-.8 5.3-4.1.3c-3.8.3-4.2.6-4.8 3.4-.3 1.7-.5 3.3-.3 3.5.5.4 12.2-2.4 16-3.9 1.6-.6 3-2.1 3.3-3.5 1.2-4.6 2.9-1.7 3.2 5.4l.3 7.1-5.8 1.7c-17.2 4.8-19.3 5.6-20.9 8-.9 1.4-2.3 2.5-3 2.5-.8 0-1.4-.1-1.4-.3 0-.3 3.6-17.3 4.5-21.5.4-1.8.1-2.2-1.9-2.2-1.3 0-2.9.7-3.6 1.5-2.4 2.9-3.2 1.6-2.5-3.8.9-6.6 1.8-7.7 6.5-7.7 3.1 0 3.9-.4 4.4-2.3 1.2-4.4.8-4.5-7.5-2.2-7.8 2.2-9.9 3.5-9.9 6.2 0 .7-.7 1.3-1.5 1.3-1.2 0-1.5-1.5-1.5-7.3v-7.4l10.5-3.2c6-1.8 11.6-4.2 13.2-5.6 2.7-2.3 5-2.8 4.7-.9zM336 562.5c0 .4-.6 1.8-1.4 3.3-.8 1.5-3.5 9.8-6 18.6-4.5 15.2-4.7 15.9-2.9 17.8 1.9 2.1 1.8 2.3-3.7 5.2-2.4 1.3-2.7 1.2-6.3-2.9-2.3-2.7-3.3-4.6-2.7-5 .6-.4 1.6-1.9 2.2-3.3 2.3-6.1 7.8-25.9 7.8-28.3 0-2.3.6-2.8 5.3-4.1 5.9-1.8 7.7-2 7.7-1.3zm123.6 5.6c3.2.8 5.2.8 7.5 0 1.8-.6 3.4-1 3.5-.8.2.1-.3 2.2-1.2 4.5-1.3 3.9-1.2 5.4.8 16.8l2.2 12.4h2.9c3.1 0 3.2.9.7 7.5-1.1 3-.5 2.9-8.4.9-6.1-1.5-6.2-1.6-5.8-4.5.2-1.6-.3-7-1.3-11.9-1.3-6.7-1.5-9.6-.7-11.9 1-2.9 1-3-3.6-4-2.6-.5-5.5-1.3-6.4-1.6-2.7-1.1-3.1 2.8-1.2 13.6 1.4 7.8 1.5 10.7.7 13l-1.1 2.9h5c4.7 0 5 .1 4.4 2.2-.4 1.3-.9 3.6-1.3 5.1-.5 2.6-.9 2.8-3.6 2.3-1.7-.4-5.5-.9-8.4-1.3-4.4-.5-5.3-.9-4.7-2.2 1.6-4 1.6-6.1-.7-17.1l-2.3-11.9-4.3-1.2c-2.4-.6-4.3-1.3-4.3-1.4 0-.7 5.2-9.5 5.6-9.5.3 0 2.7 1.1 5.4 2.5s5.3 2.5 5.7 2.5c.4-.1 2.4-2.1 4.3-4.5 2.1-2.7 4.1-4.3 4.9-4 .7.3 3.3 1 5.7 1.6zm94.4 3.2c0 .4-.9 2.5-2 4.7l-2 3.9-4.4-1.6-4.4-1.7 2.4-4.7 2.4-4.8 4 1.7c2.2.9 4 2.1 4 2.5zm-238.8 4.2c.8 4.2 1.2 7.7.9 7.9-.3.2-3.9 1.1-7.8 2.1-8.8 2.1-9.3 3.6-3.1 8.9 2.3 2 4 3.8 3.7 4-1.2 1.1-7 3.6-8.1 3.5-.7-.1-3.5-2.5-6.2-5.5l-4.9-5.4 2.6-5.7c1.4-3.2 3.1-7.9 3.8-10.5l1.3-4.7 7-.9c3.9-.5 7.6-1 8.2-1.1.6 0 1.8 3.2 2.6 7.4zm39.2 5.1c2.5 1.4 4.6 2.9 4.6 3.3 0 .4-1.3 1.4-2.9 2.4l-3 1.7 2 4.5c1.6 3.6 1.8 5.4 1.2 8.7-.8 4-1.2 4.3-9.3 8.4l-8.4 4.3-2.8-2.4c-1.5-1.3-3.7-2.6-4.8-3-1.1-.3-2-1-2-1.5 0-1.1 6.3-6 7.7-6 .5 0 2.8 1.3 5.1 2.9 4.5 3.3 5.2 2.9 5.2-3.5 0-4.3-1.4-4.9-6.9-2.9-2.4.8-4.7 1.3-5.1 1-1.2-.8-2.1-7.1-1.4-10 .5-2 2.4-3.5 8.3-6.5 4.2-2.1 7.7-3.9 7.7-4 .1 0 2.2 1.2 4.8 2.6zm24.1 3.4c.4.6 2.4 1.9 4.5 3 3.7 1.9 3.8 2 2.9 5.7-.5 2.1-.9 7.4-1 11.8l-.2 8-6.5 3.2-6.5 3.1-6.4-3.5c-4.7-2.6-6.3-4-5.8-5.1.3-.9 1.1-6.1 1.7-11.7l1.1-10 6.6-2.7c7.6-3 8.7-3.2 9.6-1.8zm25.6 2.4l2.6-2.5 5.4 2.5 5.4 2.5-.4 10.6c-.3 9.9-.2 10.6 1.9 12.3l2.3 1.8-3.8 3.2-3.9 3.1-3.9-2.9-4-2.9-3.4 2.9-3.4 3-4-2.7c-2.7-1.8-3.7-2.9-2.9-3.7 1.1-1.1 1.4-20.6.3-20.6-.5 0-1.5-.5-2.3-1-1.2-.8-.9-1.5 1.9-4.4l3.4-3.5 3.1 2.4 3.1 2.4 2.6-2.5zm92.8 13.6c-.5.8-1.8 2.6-2.9 3.9-2.2 2.5-3.3 2.3-8.4-1.4-1.7-1.3-1.6-1.6 1.4-5.4l3.3-4 3.7 2.7c2.9 2 3.6 3.1 2.9 4.2zm-96 112.7c0 38.5-.4 62.9-.9 61.6-.5-1.2-1.4-21.7-1.9-45.5-.6-23.8-1.3-51.5-1.6-61.6l-.6-18.2h5.1l-.1 63.7zm6.1-54c0 14.4-2 80.8-2.9 95.3-.6 8.4-.9-6.6-1-46.3-.1-58.1-.1-58.7 1.9-58.7 1.9 0 2 .7 2 9.7z"/><path d="M406 61.5c0 4.3.1 4.5 2 3.5 1.1-.6 2-1.3 2-1.6 0-.9-3-6.4-3.5-6.4-.3 0-.5 2-.5 4.5zM375.6 65.7c.3 4.9.9 9.1 1.3 9.4.3.4 1.8.9 3.4 1.3l2.7.6-.5-5.7c-1.1-11-1.4-11.9-4.1-13.1-1.4-.7-2.7-1.2-3-1.2-.3 0-.2 3.9.2 8.7zM431.6 58.8c-.2.4-.7 4.5-1.1 9.1-.7 8.4-.2 10 3.1 10.1.9 0 3.4-12.5 3.4-16.6 0-1.3-4.8-3.6-5.4-2.6zM343 62.7c0 .5.7 4.5 1.6 9 1.5 7.2 1.9 8.2 4.1 8.8 1.4.3 2.8.4 3.1.1.9-.9-2.7-16.9-4.1-17.8-1.5-1-4.7-1-4.7-.1zM463 74.1c-2 8.1-2.1 9.2-.7 10.6 1.3 1.4 1.7 1.3 3-.8.9-1.3 2.3-5.5 3.3-9.3 1.7-6.6 1.6-6.9-.1-8.2-1-.8-2.2-1.4-2.6-1.4-.4 0-1.7 4.1-2.9 9.1zM248.5 94c1 4.9 3.2 8.9 6.8 12.7 3.4 3.6 5 4.2 4 1.5-.9-2.4-8.3-14.4-10.1-16.2-1.2-1.3-1.3-1.1-.7 2zM557.1 116.9c-4.9 6.6-5.1 7.2-3.9 9.6l1.4 2.6 5.2-6.6c6.5-8 6.7-8.7 4.4-10.9-1.9-1.6-2.1-1.4-7.1 5.3zM206.3 139.2c-1.3.6-2.3 1.4-2.3 1.7 0 .3 2.9 3.2 6.5 6.4 4.9 4.4 7 5.7 8.5 5.2 1.1-.3 2-.9 2-1.3 0-1-11-13.2-11.8-13.1-.4 0-1.7.5-2.9 1.1zM622.8 187.3c-5.7 3.5-6.8 4.6-6.8 6.9 0 1.6.3 2.8.6 2.8 1.7 0 15.4-8.6 15.4-9.6 0-1.8-1.1-4.4-1.9-4.4-.3.1-3.6 2-7.3 4.3zM150.5 222c-1.7 1.9-1.6 2 6.1 5.6 7.1 3.2 8.1 3.4 10.3 2.2 1.3-.7 2.3-1.8 2.3-2.3-.1-.9-14.3-7.5-16.1-7.5-.5 0-1.6.9-2.6 2zM661.3 244.1c-3.8 1.1-3.7.9-2.1 6 1.2 4.1 1.2 4.2 7.4 1.8 3-1.1 4.1-5.9 1.8-7.6-2-1.5-2.6-1.5-7.1-.2zM135.7 270.3c-3 4-2.7 4.7 2 4.7 3.6 0 3.7-.1 1.9-4.9l-1.2-3.3-2.7 3.5zM667.5 330c-.3.5.2 2.4 1.1 4.2l1.7 3.2 1.8-3.5c1-1.9 1.8-3.7 1.9-4.2 0-1.1-5.8-.9-6.5.3zM304.8 578.5c-1.4 3.5-1.4 4-.1 4.3 2.4.6 3.2-1 2.4-4.8l-.7-3.5-1.6 4zM343 588.5c0 2.2.5 3.5 1.3 3.4 2.1-.1 8.3-2.7 6.7-2.8-.8-.1-2.6-1-4-2.1-3.5-2.7-4-2.5-4 1.5zM370.6 596.8c-.4 4.2-.9 8.4-1.2 9.2-.2 1 .8 2.3 2.5 3.3l3 1.7.6-5.7c.3-3.2.8-7.4 1.1-9.3.4-3.1.1-3.7-2.4-5.2l-3-1.8-.6 7.8zM402.4 601.7c.5 7.4 1.1 10.1 2.3 11 2.6 2 3.3-.1 3.3-10 0-8.5-.1-8.8-2.6-9.7-1.4-.6-2.8-1-3.1-1-.3 0-.3 4.4.1 9.7z"/></svg>